<svg xmlns="http://www.w3.org/2000/svg" viewBox="0 0 32 32" width="32" height="32" role="img" aria-label="TORRË favicon">
  <!-- Compact tower-cup icon optimized for small sizes -->
  <g transform="translate(6, 1) scale(0.67)">
    <!-- Tower arch -->
    <path d="M15,1 L15,4 C15,4 8,4 4,9 C1,13 1,18 1,18 L5,18 C5,18 5,13 8,10 C11,7 15,7 15,7 L15,11 L19,5.5 L15,1 Z" fill="#2C1810"/>
    <path d="M15,1 L15,4 C15,4 22,4 26,9 C29,13 29,18 29,18 L25,18 C25,18 25,13 22,10 C19,7 15,7 15,7 L15,11 L11,5.5 L15,1 Z" fill="#2C1810"/>
    <!-- Column -->
    <rect x="12" y="18" width="6" height="10" fill="#2C1810"/>
    <!-- Filter -->
    <path d="M8,28 L22,28 L19.5,34 L16.5,34 L16.5,38 L13.5,38 L13.5,34 L10.5,34 Z" fill="#2C1810"/>
    <!-- Cup -->
    <path d="M9,38 Q9,36 11,36 L19,36 Q21,36 21,38 L22,44 Q22,46 15,46 Q8,46 8,44 Z" fill="#2C1810"/>
    <!-- Handle -->
    <path d="M21,39 Q25,39 25,42 Q25,45 21,45" stroke="#2C1810" stroke-width="2.5" fill="none" stroke-linecap="round"/>
    <!-- Steam dot accent -->
    <circle cx="15" cy="31" r="1" fill="#B87333" opacity="0.9"/>
  </g>
</svg>
